<svg width="79" height="72" viewBox="0 0 79 72" fill="none" xmlns="http://www.w3.org/2000/svg">
<path d="M78.5435 51.4595L74.7773 47.7115C74.172 47.1091 73.195 47.1133 72.5948 47.7205C71.9944 48.3277 71.9986 49.3081 72.6037 49.9103L76.3698 53.6583C76.6707 53.9579 77.0637 54.1074 77.4565 54.1074C77.8535 54.1074 78.2505 53.9546 78.5522 53.6493C79.1527 53.0421 79.1487 52.0617 78.5435 51.4595Z" fill="#121B30"/>
<path d="M70.9398 43.8767C70.3371 43.272 69.3603 43.272 68.7573 43.8767L68.7546 43.8793C68.152 44.484 68.1534 45.4632 68.756 46.0679C69.0569 46.3699 69.4518 46.5209 69.8464 46.5209C70.2421 46.5209 70.638 46.3693 70.9396 46.0667C71.5423 45.462 71.5423 44.4815 70.9398 43.8767Z" fill="#121B30"/>
<path d="M57.7831 51.0164L72.7542 35.9954C75.0215 33.7203 75.0215 30.0185 72.754 27.7433C71.9544 26.9411 70.9779 26.4231 69.9493 26.1867C70.3021 25.426 70.4888 24.5911 70.4888 23.7271C70.4888 22.1684 69.8838 20.7031 68.7855 19.6012C67.924 18.7367 66.8395 18.1785 65.6624 17.9774C66.3251 15.9515 65.8566 13.6313 64.254 12.0235C63.3728 11.1395 62.2768 10.6007 61.133 10.4038C61.3246 9.82033 61.4257 9.20418 61.4257 8.57193C61.4257 7.01328 60.8207 5.54799 59.7224 4.44604C58.624 3.34409 57.1636 2.73707 55.6103 2.73707C54.6238 2.73707 53.6754 2.9826 52.8328 3.44363L52.6839 3.28309C50.7487 1.19654 48.0095 0 45.169 0H33.0506C32.1984 0 31.5073 0.693402 31.5073 1.54843V3.57894C31.5073 4.39155 31.6443 5.18263 31.9063 5.9265C31.2083 5.63561 30.453 5.48281 29.6744 5.48281C28.1209 5.48281 26.6605 6.08983 25.5621 7.19178C23.9586 8.80058 23.4907 11.1225 24.1549 13.1489C23.0102 13.3454 21.9127 13.8844 21.0307 14.7692C19.9324 15.8713 19.3274 17.3366 19.3274 18.8951C19.3274 19.5261 19.4282 20.1413 19.619 20.7236C18.4433 20.9253 17.3598 21.4832 16.4992 22.3469C14.7283 24.1237 14.3406 26.771 15.3359 28.9289C14.2819 29.1706 13.3139 29.7031 12.5303 30.4891C10.263 32.764 10.263 36.4659 12.5303 38.741L15.6092 41.83L0.452012 57.0374C-0.150671 57.6421 -0.150671 58.6226 0.452012 59.2274C0.753353 59.5296 1.14835 59.681 1.5432 59.681C1.93804 59.681 2.33304 59.5298 2.63438 59.2274L17.9378 43.8729C18.8042 44.3689 19.7874 44.6342 20.8121 44.6342C22.3654 44.6342 23.8258 44.0272 24.9242 42.9251C26.1176 41.728 26.682 40.1354 26.6192 38.5638C26.6974 38.567 26.7756 38.5693 26.8539 38.5693C28.3428 38.5692 29.8326 38.0004 30.966 36.8632C32.0643 35.761 32.6693 34.2958 32.6693 32.7373C32.6693 32.6585 32.6667 32.5801 32.6636 32.5018C32.7409 32.5049 32.8182 32.5074 32.8956 32.5074C34.3848 32.5074 35.8742 31.9386 37.0078 30.8012C38.1061 29.6991 38.7111 28.2338 38.7111 26.6753C38.7111 26.5965 38.7085 26.5182 38.7054 26.4398C38.7827 26.4429 38.86 26.4454 38.9374 26.4454C40.4267 26.4454 41.916 25.8766 43.0496 24.7392C45.1801 22.6016 45.3083 19.2046 43.4353 16.9147L53.6797 6.63616C54.1952 6.11878 54.8803 5.83408 55.6093 5.83408C56.3384 5.83408 57.0236 6.11878 57.5391 6.63616C58.0546 7.15339 58.3384 7.84075 58.3384 8.57224C58.3384 9.30357 58.0546 9.99124 57.539 10.5083L50.5483 17.5224C49.9456 18.1271 49.9456 19.1075 50.5483 19.7123C50.8496 20.0145 51.2446 20.1659 51.6394 20.1659C52.0343 20.1659 52.4293 20.0147 52.7306 19.7123L58.2109 14.2137C59.2748 13.1462 61.0062 13.146 62.0704 14.2136C63.1344 15.2813 63.1344 17.0183 62.0704 18.086L56.59 23.5846C55.9874 24.1893 55.9874 25.1698 56.59 25.7746C56.8914 26.0768 57.2864 26.2282 57.6812 26.2282C58.0761 26.2282 58.4711 26.077 58.7724 25.7746L62.7422 21.7916C63.2577 21.2742 63.9429 20.9895 64.6718 20.9895C65.4008 20.9895 66.0861 21.2742 66.6016 21.7916C67.1171 22.3088 67.4008 22.9962 67.4008 23.7277C67.4008 24.459 67.1171 25.1467 66.6014 25.6638L62.6317 29.6468C62.029 30.2515 62.029 31.2319 62.6317 31.8367C62.933 32.1389 63.328 32.2903 63.7229 32.2903C64.1177 32.2903 64.5127 32.1391 64.814 31.8367L66.7119 29.9325C67.7761 28.8667 69.5064 28.8668 70.5699 29.9339C71.6341 31.0015 71.6341 32.7387 70.5699 33.8064L55.5988 48.8273C51.8396 52.5993 46.8433 54.7829 41.5304 54.9764C41.1399 54.9907 40.7689 55.1531 40.4931 55.4311L26.6631 69.3586C26.0615 69.9644 26.0632 70.9448 26.6672 71.5484C26.9682 71.8494 27.3623 72 27.7563 72C28.1521 72 28.5482 71.8481 28.8495 71.5444L39.0218 61.3005C41.6057 62.9636 44.6444 63.7544 47.7342 63.5494L55.6956 71.5376C55.9969 71.8398 56.3919 71.9912 56.7868 71.9912C57.1818 71.9912 57.5766 71.8399 57.878 71.5376C58.4806 70.9329 58.4806 69.9525 57.878 69.3476L49.4132 60.8537C49.0928 60.5323 48.6475 60.3681 48.1958 60.4052L47.7066 60.4455C45.4481 60.6312 43.2158 60.1349 41.2667 59.039L42.2585 58.0403C48.1243 57.6773 53.616 55.1975 57.7831 51.0164ZM22.7418 40.7355C22.2263 41.2528 21.541 41.5375 20.8122 41.5375C20.0832 41.5375 19.3979 41.2528 18.8826 40.7355L14.7126 36.5517C13.6485 35.4841 13.6485 33.7469 14.7126 32.6792C15.2281 32.1618 15.9135 31.8771 16.6424 31.8771C17.3713 31.8771 18.0566 32.1618 18.572 32.6792L22.742 36.863C23.8059 37.9306 23.8059 39.6677 22.7418 40.7355ZM28.784 34.6732C27.7198 35.7408 25.9881 35.7408 24.9244 34.6732L18.6809 28.4089C17.6169 27.3413 17.6169 25.6042 18.6809 24.5366C19.1964 24.0192 19.8818 23.7345 20.6106 23.7345C21.3396 23.7345 22.0248 24.0192 22.5402 24.5366L28.7835 30.8007C29.2991 31.3181 29.5831 32.0056 29.5831 32.737C29.5831 33.4683 29.2993 34.156 28.784 34.6732ZM34.8257 28.6111C33.7616 29.6785 32.03 29.6786 30.9662 28.6111L23.2123 20.8313C22.6968 20.3141 22.413 19.6267 22.413 18.8952C22.413 18.1639 22.6968 17.4762 23.2125 16.9592C23.7445 16.4254 24.4434 16.1585 25.1421 16.1585C25.8404 16.1585 26.5386 16.4251 27.0705 16.9579L34.8254 24.7388C35.3408 25.256 35.6247 25.9434 35.6247 26.6748C35.625 27.4063 35.3412 28.094 34.8257 28.6111ZM40.8677 22.5489C39.8037 23.6165 38.0723 23.6165 37.0083 22.5489L29.2544 14.7692C29.2536 14.7684 29.2527 14.7676 29.2518 14.7667L27.7438 13.2537C26.6798 12.186 26.6798 10.449 27.7438 9.38128C28.2759 8.84734 28.9748 8.58044 29.6736 8.58044C30.3724 8.58044 31.0714 8.84734 31.6033 9.38128L40.8674 18.6763C41.383 19.1936 41.6668 19.8811 41.6668 20.6124C41.6669 21.344 41.3833 22.0319 40.8677 22.5489ZM41.2735 14.7043L37.0347 10.4513C37.5153 10.5543 38.0095 10.6089 38.5125 10.6088C38.5238 10.6088 38.5352 10.6088 38.5466 10.6088L42.7817 10.5888C43.6339 10.5848 44.3218 9.88829 44.3178 9.03311C44.3137 8.18041 43.6236 7.49196 42.7746 7.49196C42.7722 7.49196 42.7697 7.49196 42.7672 7.49196L38.5321 7.51193C38.5256 7.51193 38.5194 7.51193 38.513 7.51193C37.4695 7.51193 36.488 7.10555 35.748 6.36663C35.0033 5.62292 34.5934 4.63305 34.5934 3.57878V3.0967H45.1685C47.1551 3.0967 49.0707 3.93346 50.4242 5.39271L50.487 5.46037L41.2735 14.7043Z" fill="#121B30"/>
</svg>
