<svg width="27" height="27" viewBox="0 0 27 27" fill="none" xmlns="http://www.w3.org/2000/svg">
<g clip-path="url(#clip0)">
<path d="M19.1248 10.1263H7.87547C7.56499 10.1263 7.31299 10.3783 7.31299 10.6888V19.6882C7.31299 21.0472 8.28045 22.1822 9.56286 22.4443V25.3129C9.56286 26.2432 10.3199 27.0003 11.2503 27.0003C12.1806 27.0003 12.9377 26.2432 12.9377 25.3129V22.5006H14.0626V25.3129C14.0626 26.2432 14.8196 27.0003 15.75 27.0003C16.6803 27.0003 17.4374 26.2432 17.4374 25.3129V22.4443C18.7198 22.1834 19.6872 21.0472 19.6872 19.6882V10.6888C19.6872 10.3772 19.4353 10.1263 19.1248 10.1263Z" fill="white"/>
<path d="M16.444 2.99739L17.3923 0.784648C17.5149 0.498899 17.3822 0.169331 17.0964 0.0466793C16.8141 -0.07708 16.48 0.0556963 16.3585 0.342552L15.4102 2.55641C14.8083 2.36067 14.1671 2.25157 13.5011 2.25157C12.8352 2.25157 12.194 2.36067 11.5921 2.55641L10.6416 0.342552C10.5201 0.0556963 10.186 -0.0781874 9.90366 0.0466793C9.61791 0.169279 9.4863 0.500007 9.60895 0.784648L10.5573 2.99739C8.62578 4.04584 7.31299 6.09206 7.31299 8.43864C7.31299 8.74912 7.56499 9.00112 7.87547 9.00112H19.1247C19.4352 9.00112 19.6872 8.74912 19.6872 8.43864C19.6872 6.09206 18.3744 4.04584 16.444 2.99739ZM11.2502 6.75125C10.9397 6.75125 10.6877 6.49925 10.6877 6.18877C10.6877 5.87829 10.9397 5.62629 11.2502 5.62629C11.5607 5.62629 11.8127 5.87829 11.8127 6.18877C11.8127 6.49925 11.5607 6.75125 11.2502 6.75125ZM15.75 6.75125C15.4395 6.75125 15.1875 6.49925 15.1875 6.18877C15.1875 5.87829 15.4395 5.62629 15.75 5.62629C16.0604 5.62629 16.3124 5.87829 16.3124 6.18877C16.3124 6.49925 16.0604 6.75125 15.75 6.75125Z" fill="white"/>
<path d="M22.4994 10.1263C21.5691 10.1263 20.812 10.8834 20.812 11.8137V17.4384C20.812 18.3687 21.5691 19.1258 22.4994 19.1258C23.4297 19.1258 24.1868 18.3687 24.1868 17.4384V11.8137C24.1868 10.8835 23.4297 10.1263 22.4994 10.1263Z" fill="white"/>
<path d="M4.50062 10.1263C3.57029 10.1263 2.81323 10.8834 2.81323 11.8137V17.4384C2.81323 18.3687 3.57029 19.1258 4.50062 19.1258C5.43095 19.1258 6.18801 18.3687 6.18801 17.4384V11.8137C6.18801 10.8835 5.43095 10.1263 4.50062 10.1263Z" fill="white"/>
</g>
<defs>
<clipPath id="clip0">
<rect width="27" height="27" fill="white"/>
</clipPath>
</defs>
</svg>
