<svg width="241" height="164" viewBox="0 0 241 164" fill="none" xmlns="http://www.w3.org/2000/svg">
<rect x="3.5" y="0.5" width="237" height="163" stroke="#E6EBF0"/>
<line x1="3" y1="40.5" x2="241" y2="40.5" stroke="#E6EBF0"/>
<line x1="37.5" y1="164" x2="37.5" y2="-2.18557e-08" stroke="#E6EBF0"/>
<line x1="71.5" y1="164" x2="71.5" y2="-2.18557e-08" stroke="#E6EBF0"/>
<line x1="105.5" y1="164" x2="105.5" y2="-2.18557e-08" stroke="#E6EBF0"/>
<line x1="139.5" y1="164" x2="139.5" y2="-2.18557e-08" stroke="#E6EBF0"/>
<line x1="174.5" y1="164" x2="174.5" y2="-2.18557e-08" stroke="#E6EBF0"/>
<line x1="240.5" y1="164" x2="240.5" y2="-2.18557e-08" stroke="#E6EBF0"/>
<line x1="205.5" y1="164" x2="205.5" y2="-2.18557e-08" stroke="#E6EBF0"/>
<line x1="3" y1="83.5" x2="241" y2="83.5" stroke="#E6EBF0"/>
<line x1="3" y1="124.5" x2="241" y2="124.5" stroke="#E6EBF0"/>
<path d="M3 144.5C9.83333 130.833 28.6 97.3998 63 88.9998C106 78.4998 139 108.5 168 79.9998C197 51.4998 189 8.49981 240 10.9998" stroke="#FFD02C" stroke-width="5"/>
</svg>
